<svg xmlns="http://www.w3.org/2000/svg" viewBox="0 0 100 100">
  <rect width="100" height="100" rx="20" fill="#0f172a"/>
  <path d="M20 60 Q 20 80 40 80 L 50 80 Q 70 80 70 60 Q 70 40 50 40 L 45 40 Q 35 40 35 30 Q 35 20 45 20 L 55 20 Q 75 20 75 40" 
        fill="none" stroke="#00d4aa" stroke-width="8" stroke-linecap="round" stroke-linejoin="round"/>
  <path d="M80 40 Q 80 20 60 20 L 50 20 Q 30 20 30 40 Q 30 60 50 60 L 55 60 Q 65 60 65 70 Q 65 80 55 80 L 45 80 Q 25 80 25 60" 
        fill="none" stroke="#00d4aa" stroke-width="8" stroke-linecap="round" stroke-linejoin="round" opacity="0.3"/>
</svg>
